# xmcd
#
# Track frame offsets: 
#        150
#        26703
#        45865
#        67930
#        90613
#        117960
#        145615
#
# Disc length: 2142 seconds
#
# Revision: 1
# Processed by: cddbd v1.5.2PL0 Copyright (c) Steve Scherf et al.
# Submitted via: ExactAudioCopy v0.99pb5
#
DISCID=4f085c07
DTITLE=Sherry Winston - Do it for love
DYEAR=1986
DGENRE=Headfirst
TTITLE0=Do it for love
TTITLE1=Jim Beau
TTITLE2=Michael's Theme
TTITLE3=Symphonic rock suite # 1
TTITLE4=Chuck's Funk
TTITLE5=Song for Jocelyn
TTITLE6=The Roach Song
EXTD=YEAR: 1986
EXTT0=
EXTT1=
EXTT2=
EXTT3=
EXTT4=
EXTT5=
EXTT6=
PLAYORDER=
